<svg width="24" height="24" viewBox="0 0 24 24" fill="none" xmlns="http://www.w3.org/2000/svg">
<rect width="24" height="24" fill="#287359"/>
<path d="M6.68769 7.9377C7.37799 7.9377 7.93767 7.37802 7.93767 6.68772C7.93767 5.99743 7.37799 5.43774 6.68769 5.43774C5.99727 5.43774 5.43771 5.99743 5.43771 6.68772C5.43771 7.37802 5.99727 7.9377 6.68769 7.9377ZM6.68769 6.06273C7.03278 6.06273 7.31268 6.34264 7.31268 6.68772C7.31268 7.03293 7.03278 7.31271 6.68769 7.31271C6.34248 7.31271 6.0627 7.03293 6.0627 6.68772C6.0627 6.34264 6.34248 6.06273 6.68769 6.06273Z" fill="white"/>
<path d="M6.37517 11.0626C6.37517 10.3723 5.81549 9.81262 5.12519 9.81262C4.43477 9.81262 3.87521 10.3723 3.87521 11.0626C3.87521 11.7529 4.43477 12.3126 5.12519 12.3126C5.81549 12.3126 6.37517 11.7529 6.37517 11.0626ZM4.5002 11.0626C4.5002 10.7175 4.77998 10.4376 5.12519 10.4376C5.47028 10.4376 5.75018 10.7175 5.75018 11.0626C5.75018 11.4078 5.47028 11.6876 5.12519 11.6876C4.77998 11.6876 4.5002 11.4078 4.5002 11.0626Z" fill="white"/>
<path d="M5.75019 14.1876C5.05978 14.1876 4.50021 14.7472 4.50021 15.4375C4.50021 16.1278 5.05978 16.6875 5.75019 16.6875C6.44049 16.6875 7.00018 16.1278 7.00018 15.4375C7.00018 14.7472 6.44049 14.1876 5.75019 14.1876ZM5.75019 16.0625C5.40498 16.0625 5.1252 15.7828 5.1252 15.4375C5.1252 15.0925 5.40498 14.8126 5.75019 14.8126C6.09528 14.8126 6.37518 15.0925 6.37518 15.4375C6.37518 15.7828 6.09528 16.0625 5.75019 16.0625Z" fill="white"/>
<path d="M17.3125 7.9377C18.0028 7.9377 18.5625 7.37802 18.5625 6.68772C18.5625 5.99743 18.0028 5.43774 17.3125 5.43774C16.6221 5.43774 16.0625 5.99743 16.0625 6.68772C16.0625 7.37802 16.6221 7.9377 17.3125 7.9377ZM17.3125 6.06273C17.6576 6.06273 17.9375 6.34264 17.9375 6.68772C17.9375 7.03293 17.6576 7.31271 17.3125 7.31271C16.9673 7.31271 16.6875 7.03293 16.6875 6.68772C16.6875 6.34264 16.9673 6.06273 17.3125 6.06273Z" fill="white"/>
<path d="M17.625 11.0626C17.625 11.7529 18.1846 12.3126 18.875 12.3126C19.5653 12.3126 20.125 11.7529 20.125 11.0626C20.125 10.3723 19.5653 9.81262 18.875 9.81262C18.1846 9.81262 17.625 10.3723 17.625 11.0626V11.0626ZM19.5 11.0626C19.5 11.4078 19.2201 11.6876 18.875 11.6876C18.5298 11.6876 18.25 11.4078 18.25 11.0626C18.25 10.7175 18.5298 10.4376 18.875 10.4376C19.2201 10.4376 19.5 10.7175 19.5 11.0626Z" fill="white"/>
<path d="M19.7132 13.4147C20.8448 13.0131 21.5302 11.863 21.3449 10.6766C21.1595 9.49037 20.156 8.60403 18.9558 8.5668C19.9786 7.67265 20.099 6.12494 19.2268 5.08346C18.3545 4.04185 16.8097 3.88865 15.75 4.73874V2.93774C15.75 2.76526 15.6101 2.62524 15.4375 2.62524H8.56264C8.39004 2.62524 8.25015 2.76526 8.25015 2.93774V4.74337C7.19181 3.89085 5.64582 4.04209 4.77266 5.08333C3.89951 6.1247 4.02011 7.67326 5.04414 8.5668C3.84409 8.60403 2.84057 9.49037 2.65514 10.6766C2.46972 11.863 3.15514 13.0131 4.28671 13.4147C3.374 14.0744 3.01537 15.2632 3.41136 16.3174C3.8071 17.3716 4.85958 18.0306 5.9809 17.9264C7.10209 17.8221 8.01504 16.9805 8.20974 15.8714C8.56411 16.3653 9.0005 16.7948 9.50013 17.1414V18.875H6.68767C5.82514 18.8761 5.12605 19.5749 5.1252 20.4375V21.0624C5.1252 21.235 5.26509 21.3749 5.43769 21.3749H18.5625C18.7351 21.3749 18.875 21.235 18.875 21.0624V20.4375C18.8739 19.5749 18.1749 18.8761 17.3125 18.875H14.5V17.1414C14.9994 16.7948 15.4359 16.3653 15.7903 15.8714C15.9831 16.9832 16.8969 17.828 18.0204 17.9332C19.1438 18.0386 20.1987 17.3782 20.5944 16.3213C20.9904 15.2647 20.6293 14.0738 19.7132 13.4147ZM20.7499 11.0626C20.7499 12.0981 19.9104 12.9376 18.875 12.9376C17.8393 12.9376 17 12.0981 17 11.0626C17 10.0272 17.8393 9.18764 18.875 9.18764C19.91 9.18874 20.7488 10.0275 20.7499 11.0626ZM16.6693 9.88831C16.5692 9.57337 16.4453 9.26674 16.2987 8.97084C16.5929 9.10158 16.9097 9.17397 17.2314 9.18361C17.0032 9.3827 16.8126 9.62147 16.6693 9.88831ZM17.3125 4.81271C18.3082 4.81149 19.1314 5.58906 19.1867 6.58355C19.242 7.57792 18.5105 8.44204 17.5205 8.55142C16.5307 8.66067 15.628 7.97709 15.465 6.99456C15.6254 6.98186 15.7491 6.84856 15.75 6.68768V5.65657C16.0941 5.12862 16.6823 4.81112 17.3125 4.81271ZM15.125 6.37518H13.5626V3.25023H15.125V6.37518ZM12.9376 3.25023V6.37518H11.0626V3.25023H12.9376ZM7.33061 9.88831C7.18718 9.62135 6.99663 9.3827 6.76824 9.18361C7.09001 9.17384 7.40678 9.10158 7.70096 8.97084C7.55448 9.26686 7.4307 9.57362 7.33061 9.88831ZM8.87514 3.25023H10.4376V6.37518H8.87514V3.25023ZM4.8127 6.68768C4.81136 5.85969 5.35395 5.12911 6.14703 4.89108C6.94023 4.65317 7.79544 4.96444 8.25015 5.65657V6.68768C8.25088 6.84856 8.37478 6.98186 8.53505 6.99456C8.36965 7.95133 7.50114 8.62332 6.5335 8.54348C5.56599 8.46377 4.81929 7.65861 4.8127 6.68768ZM3.25023 11.0626C3.25023 10.0272 4.08957 9.18764 5.1252 9.18764C6.16058 9.18764 7.00017 10.0272 7.00017 11.0626C7.00017 12.0981 6.16058 12.9376 5.1252 12.9376C4.09006 12.9366 3.25108 12.0977 3.25023 11.0626ZM5.75019 17.3125C4.71456 17.3125 3.87522 16.473 3.87522 15.4375C3.87522 14.4022 4.71456 13.5626 5.75019 13.5626C6.78557 13.5626 7.62516 14.4022 7.62516 15.4375C7.62406 16.4727 6.7852 17.3115 5.75019 17.3125ZM6.58843 13.0855C6.7531 12.9663 6.903 12.8277 7.03447 12.6729C7.05681 12.9049 7.09013 13.1331 7.13469 13.3577C6.96465 13.2448 6.78105 13.1534 6.58843 13.0855ZM14.02 16.7105C13.9296 16.7678 13.8749 16.8674 13.8751 16.9744V19.1875C13.8751 19.3601 14.0149 19.5 14.1876 19.5H17.3125C17.8302 19.5 18.25 19.9198 18.25 20.4375V20.7499H5.75019V20.4375C5.75019 19.9198 6.16974 19.5 6.68767 19.5H9.81262C9.98523 19.5 10.1251 19.3601 10.1251 19.1875V16.9732C10.1251 16.8661 10.0704 16.7665 9.97998 16.7091C8.52749 15.7873 7.62516 13.983 7.62516 12.0001C7.59366 10.3983 8.2311 8.85561 9.3838 7.74296C9.27735 8.42837 9.21168 9.11952 9.18763 9.81263C9.18763 9.98523 9.32752 10.1251 9.50013 10.1251C9.67273 10.1251 9.81262 9.98523 9.81262 9.81263C9.85486 8.9446 9.94885 8.07975 10.0939 7.2227C10.233 7.13982 10.3768 7.06548 10.525 7.00017H10.6976C10.5504 7.93119 10.4634 8.87063 10.4376 9.81263C10.4376 9.98523 10.5775 10.1251 10.7501 10.1251C10.9227 10.1251 11.0626 9.98523 11.0626 9.81263C11.0913 8.8705 11.1805 7.93094 11.3301 7.00017H11.6876V9.81263C11.6876 9.98523 11.8275 10.1251 12.0001 10.1251C12.1727 10.1251 12.3126 9.98523 12.3126 9.81263V7.00017H12.6701C12.8194 7.93094 12.9088 8.8705 12.9376 9.81263C12.9376 9.98523 13.0775 10.1251 13.2501 10.1251C13.4227 10.1251 13.5626 9.98523 13.5626 9.81263C13.5366 8.87063 13.4498 7.93119 13.3026 7.00017H13.4747C13.6231 7.06548 13.7675 7.13982 13.9069 7.2227C14.0517 8.07975 14.1454 8.9446 14.1876 9.81263C14.1876 9.98523 14.3274 10.1251 14.5 10.1251C14.6727 10.1251 14.8125 9.98523 14.8125 9.81263C14.7882 9.11952 14.7228 8.42837 14.6163 7.74296C15.7691 8.85561 16.4063 10.3983 16.375 12.0001C16.375 13.983 15.4724 15.7873 14.02 16.7091V16.7105ZM16.9655 12.6729C17.0972 12.8277 17.2468 12.9663 17.4115 13.0855C17.219 13.1534 17.0355 13.2448 16.8652 13.3577C16.9097 13.1333 16.9431 12.905 16.9655 12.6729ZM18.25 17.3125C17.2144 17.3125 16.375 16.473 16.375 15.4375C16.375 14.4022 17.2144 13.5626 18.25 13.5626C19.2854 13.5626 20.125 14.4022 20.125 15.4375C20.1239 16.4727 19.285 17.3115 18.25 17.3125Z" fill="white"/>
<path d="M18.25 14.1876C17.5596 14.1876 17 14.7472 17 15.4375C17 16.1278 17.5596 16.6875 18.25 16.6875C18.9403 16.6875 19.5 16.1278 19.5 15.4375C19.5 14.7472 18.9403 14.1876 18.25 14.1876V14.1876ZM18.25 16.0625C17.9048 16.0625 17.625 15.7828 17.625 15.4375C17.625 15.0925 17.9048 14.8126 18.25 14.8126C18.5951 14.8126 18.875 15.0925 18.875 15.4375C18.875 15.7828 18.5951 16.0625 18.25 16.0625V16.0625Z" fill="white"/>
<path d="M11.2835 11.4667C11.1614 11.3448 10.9636 11.3448 10.8416 11.4667C10.6166 11.7107 10.3001 11.8496 9.96834 11.8496C9.63643 11.8496 9.31991 11.7107 9.09494 11.4667C8.97214 11.3485 8.77732 11.3506 8.65683 11.4714C8.5366 11.5923 8.53538 11.7871 8.65415 11.9095C9.01498 12.2672 9.49813 12.4746 10.0059 12.4898C10.4932 12.4796 10.9551 12.2698 11.2835 11.9095C11.3422 11.8509 11.3753 11.7712 11.3753 11.6881C11.3753 11.6051 11.3422 11.5253 11.2835 11.4667V11.4667Z" fill="white"/>
<path d="M15.346 11.4667C15.2239 11.3448 15.0261 11.3448 14.9041 11.4667C14.6791 11.7107 14.3626 11.8496 14.0308 11.8496C13.6989 11.8496 13.3824 11.7107 13.1574 11.4667C13.0346 11.3485 12.8398 11.3506 12.7193 11.4714C12.5991 11.5923 12.5979 11.7871 12.7166 11.9095C13.0775 12.2672 13.5606 12.4746 14.0684 12.4898C14.5557 12.4796 15.0176 12.2698 15.346 11.9095C15.4047 11.8509 15.4378 11.7712 15.4378 11.6881C15.4378 11.6051 15.4047 11.5253 15.346 11.4667V11.4667Z" fill="white"/>
<path d="M13.0291 14.2792C12.0368 15.271 11.0779 14.3842 10.9704 14.2792C10.8476 14.161 10.6526 14.163 10.5323 14.2837C10.412 14.4043 10.4104 14.5994 10.5292 14.7217C10.9327 15.1221 11.4734 15.3543 12.0416 15.3714C12.5869 15.3597 13.1036 15.1249 13.471 14.7217C13.5894 14.599 13.5877 14.4042 13.4672 14.2837C13.3466 14.1631 13.1517 14.1614 13.0291 14.2798V14.2792Z" fill="white"/>
</svg>
